<svg xmlns="http://www.w3.org/2000/svg" viewBox="0 0 128 128">
<defs>
<linearGradient id="g" x1="20" y1="10" x2="108" y2="118" gradientUnits="userSpaceOnUse"><stop offset="0" stop-color="#2FE6A6"/><stop offset="1" stop-color="#0A84F0"/></linearGradient>
<linearGradient id="hl" x1="0" y1="8" x2="0" y2="70" gradientUnits="userSpaceOnUse"><stop offset="0" stop-color="#fff" stop-opacity=".28"/><stop offset="1" stop-color="#fff" stop-opacity="0"/></linearGradient>
</defs>
<path d="M64 8C52 15.5 36.5 21 20.5 22.3 17.9 22.5 16 24.6 16 27.2V60c0 29 18.7 50 46.1 60.3 1.2.45 2.6.45 3.8 0C93.3 110 112 89 112 60V27.2c0-2.6-1.9-4.7-4.5-4.9C91.5 21 76 15.5 64 8Z" fill="url(#g)"/>
<path d="M64 8C52 15.5 36.5 21 20.5 22.3 17.9 22.5 16 24.6 16 27.2V60c0 29 18.7 50 46.1 60.3 1.2.45 2.6.45 3.8 0C93.3 110 112 89 112 60V27.2c0-2.6-1.9-4.7-4.5-4.9C91.5 21 76 15.5 64 8Z" fill="url(#hl)"/>
<path d="M42 64.5 57 79.5 87 48" fill="none" stroke="#fff" stroke-width="12" stroke-linecap="round" stroke-linejoin="round"/>
</svg>
